<!DOCTYPE svg PUBLIC "-//W3C//DTD SVG 1.1//EN" "http://www.w3.org/Graphics/SVG/1.1/DTD/svg11.dtd">
<svg version="1.1" id="Capa_1" xmlns="http://www.w3.org/2000/svg" xmlns:xlink="http://www.w3.org/1999/xlink" x="0px" y="0px"
	 width="551px" height="198px" viewBox="0 0 551 198" enable-background="new 0 0 551 198" xml:space="preserve">
<path fill="#FFFFFF" d="M184.663,103.158c0,1.336-0.276,2.497-0.827,3.483c-0.551,0.987-1.306,1.808-2.264,2.461
	c-0.958,0.653-2.076,1.147-3.353,1.48c-1.278,0.334-2.627,0.5-4.05,0.5h-15.065V80.168h17.199c1.074,0,2.046,0.233,2.918,0.696
	c0.87,0.465,1.611,1.067,2.221,1.808c0.609,0.74,1.081,1.582,1.415,2.525c0.334,0.944,0.5,1.909,0.5,2.895
	c0,1.48-0.37,2.875-1.11,4.18c-0.74,1.307-1.851,2.294-3.331,2.961c1.77,0.523,3.172,1.452,4.203,2.787
	C184.148,99.355,184.663,101.068,184.663,103.158 M166.245,86.264v6.401h7.01c0.784,0,1.481-0.261,2.091-0.784
	c0.609-0.522,0.915-1.335,0.915-2.438c0-1.016-0.269-1.8-0.806-2.351c-0.538-0.551-1.183-0.827-1.938-0.827H166.245z
	 M177.392,101.721c0-0.958-0.276-1.77-0.827-2.438c-0.551-0.668-1.248-1.002-2.091-1.002h-8.229v6.749h7.924
	c0.929,0,1.698-0.306,2.308-0.915C177.086,103.506,177.392,102.709,177.392,101.721"/>
<path fill="#FFFFFF" d="M195.244,111.518c-2.351,0-4.129-0.732-5.333-2.199c-1.205-1.465-1.808-3.621-1.808-6.465V88.223h6.967
	v13.106c0,1.393,0.275,2.461,0.827,3.201c0.551,0.739,1.334,1.11,2.351,1.11c0.929,0,1.829-0.247,2.701-0.74
	c0.87-0.493,1.639-1.35,2.307-2.569V88.223h6.967v15.022c0,0.696,0.11,1.183,0.327,1.458c0.217,0.277,0.602,0.444,1.153,0.501v5.878
	c-0.668,0.145-1.234,0.24-1.698,0.283c-0.465,0.044-0.886,0.066-1.263,0.066c-2.497,0-3.919-0.972-4.267-2.917l-0.13-1.393
	c-1.045,1.509-2.344,2.619-3.897,3.331C198.894,111.163,197.159,111.518,195.244,111.518"/>
<path fill="#FFFFFF" d="M224.635,111.518c-1.946,0-3.861-0.312-5.748-0.936c-1.888-0.624-3.484-1.531-4.79-2.721l2.482-4.267
	c1.393,0.958,2.75,1.698,4.071,2.22c1.32,0.523,2.591,0.784,3.81,0.784c0.9,0,1.596-0.16,2.089-0.479s0.74-0.784,0.74-1.393
	c0-0.61-0.312-1.096-0.935-1.459c-0.626-0.362-1.72-0.747-3.288-1.155c-1.539-0.435-2.838-0.855-3.897-1.262
	c-1.061-0.406-1.923-0.856-2.591-1.35c-0.668-0.492-1.147-1.058-1.436-1.698c-0.291-0.638-0.436-1.393-0.436-2.264
	c0-1.161,0.232-2.221,0.696-3.178c0.464-0.959,1.104-1.77,1.916-2.439c0.813-0.667,1.777-1.19,2.895-1.568
	c1.117-0.377,2.329-0.566,3.636-0.566c1.713,0,3.316,0.233,4.812,0.697c1.495,0.465,2.94,1.306,4.333,2.525l-2.7,4.18
	c-1.306-0.9-2.467-1.553-3.484-1.959c-1.016-0.406-2.002-0.61-2.961-0.61c-0.755,0-1.393,0.153-1.915,0.457
	c-0.523,0.306-0.784,0.791-0.784,1.459c0,0.64,0.283,1.117,0.849,1.438c0.566,0.319,1.619,0.668,3.157,1.045
	c1.625,0.435,2.997,0.87,4.115,1.306c1.116,0.436,2.025,0.921,2.721,1.458c0.697,0.538,1.204,1.155,1.525,1.852
	c0.318,0.696,0.479,1.524,0.479,2.481c0,2.264-0.843,4.065-2.525,5.399C229.787,110.85,227.509,111.518,224.635,111.518"/>
<path fill="#FFFFFF" d="M235.999,99.631c0-1.568,0.275-3.07,0.827-4.507c0.551-1.436,1.349-2.699,2.395-3.788
	c1.045-1.088,2.329-1.951,3.853-2.591c1.525-0.637,3.259-0.958,5.203-0.958c2.642,0,4.863,0.559,6.662,1.676
	c1.8,1.118,3.149,2.576,4.05,4.376l-6.792,2.046c-0.901-1.451-2.221-2.177-3.963-2.177c-1.452,0-2.663,0.538-3.636,1.611
	c-0.973,1.075-1.459,2.512-1.459,4.311c0,0.9,0.13,1.72,0.392,2.46c0.261,0.74,0.624,1.372,1.089,1.895
	c0.464,0.523,1.009,0.929,1.633,1.219c0.623,0.291,1.284,0.436,1.981,0.436c0.87,0,1.668-0.211,2.394-0.632
	c0.726-0.421,1.263-0.966,1.612-1.633l6.792,2.091c-0.842,1.77-2.185,3.221-4.027,4.353c-1.844,1.133-4.086,1.699-6.728,1.699
	c-1.915,0-3.636-0.327-5.159-0.98c-1.525-0.653-2.816-1.524-3.876-2.612c-1.061-1.088-1.865-2.351-2.417-3.788
	C236.274,102.701,235.999,101.199,235.999,99.631"/>
<path fill="#FFFFFF" d="M268.654,111.518c-1.132,0-2.185-0.182-3.157-0.544c-0.972-0.362-1.806-0.872-2.504-1.524
	c-0.696-0.653-1.248-1.423-1.655-2.308c-0.406-0.886-0.609-1.851-0.609-2.895c0-1.133,0.24-2.163,0.719-3.092
	c0.479-0.928,1.153-1.726,2.025-2.395c0.87-0.667,1.9-1.19,3.091-1.567c1.19-0.377,2.511-0.566,3.963-0.566
	c0.958,0,1.887,0.079,2.787,0.239c0.9,0.16,1.683,0.4,2.351,0.719v-1.046c0-2.641-1.525-3.962-4.572-3.962
	c-1.248,0-2.439,0.211-3.571,0.632c-1.132,0.421-2.323,1.051-3.57,1.894l-2.048-4.354c1.51-0.986,3.078-1.727,4.703-2.221
	c1.625-0.494,3.354-0.74,5.182-0.74c3.454,0,6.125,0.813,8.011,2.438c1.887,1.626,2.831,4.006,2.831,7.141v5.879
	c0,0.696,0.109,1.183,0.326,1.458c0.217,0.276,0.602,0.443,1.155,0.501v5.878c-0.609,0.145-1.161,0.239-1.655,0.283
	c-0.494,0.044-0.943,0.066-1.35,0.066c-1.306,0-2.293-0.255-2.96-0.762c-0.669-0.508-1.089-1.227-1.263-2.155l-0.13-1.046
	c-1.018,1.306-2.229,2.308-3.636,3.004C271.71,111.17,270.222,111.518,268.654,111.518 M270.701,106.511
	c0.755,0,1.487-0.131,2.199-0.392c0.711-0.261,1.299-0.61,1.763-1.046c0.668-0.522,1.002-1.073,1.002-1.654v-2.178
	c-0.609-0.232-1.27-0.414-1.981-0.544c-0.712-0.13-1.372-0.196-1.982-0.196c-1.277,0-2.329,0.291-3.157,0.87
	c-0.827,0.582-1.241,1.337-1.241,2.265c0,0.842,0.319,1.531,0.958,2.068C268.901,106.243,269.715,106.511,270.701,106.511"/>
<path fill="#FFFFFF" d="M299.439,109.994c-0.173,0.087-0.428,0.204-0.762,0.349c-0.334,0.146-0.719,0.29-1.153,0.436
	c-0.436,0.145-0.93,0.276-1.48,0.392c-0.551,0.116-1.132,0.174-1.742,0.174c-0.639,0-1.248-0.087-1.828-0.261
	c-0.582-0.174-1.089-0.443-1.525-0.806c-0.436-0.362-0.783-0.819-1.045-1.371c-0.262-0.551-0.393-1.191-0.393-1.916V90.749h-3.134
	v-2.352h3.134v-7.663h2.962v7.663h5.225v2.352h-5.225v15.414c0.057,0.842,0.354,1.459,0.892,1.851
	c0.537,0.392,1.153,0.587,1.851,0.587c0.842,0,1.581-0.137,2.22-0.413c0.639-0.276,1.046-0.472,1.22-0.589L299.439,109.994z"/>
<path fill="#FFFFFF" d="M310.237,111.518c-2.467,0-4.303-0.821-5.508-2.46c-1.205-1.64-1.808-4.086-1.808-7.338V88.397h2.961v12.802
	c0,5.138,1.757,7.707,5.27,7.707c0.869,0,1.726-0.145,2.568-0.436c0.841-0.29,1.617-0.711,2.329-1.263
	c0.711-0.55,1.349-1.204,1.916-1.959c0.566-0.754,1.022-1.611,1.371-2.568V88.397h2.961v18.854c0,0.813,0.349,1.219,1.045,1.219
	v2.612c-0.349,0.059-0.632,0.087-0.849,0.087h-0.456c-0.697-0.028-1.263-0.275-1.699-0.74c-0.436-0.464-0.653-1.088-0.653-1.872
	v-2.612c-0.987,1.771-2.329,3.142-4.027,4.114C313.96,111.033,312.153,111.518,310.237,111.518"/>
<path fill="#FFFFFF" d="M327.436,99.674c0-1.596,0.276-3.106,0.827-4.528c0.551-1.423,1.328-2.663,2.329-3.724
	c1.002-1.059,2.199-1.894,3.593-2.503c1.393-0.61,2.932-0.916,4.616-0.916c2.147,0,4.02,0.487,5.616,1.459
	c1.596,0.973,2.801,2.286,3.614,3.94l-2.874,0.916c-0.638-1.161-1.531-2.069-2.678-2.722c-1.147-0.653-2.417-0.979-3.809-0.979
	c-1.162,0-2.243,0.232-3.244,0.696c-1.002,0.465-1.873,1.097-2.614,1.895c-0.739,0.798-1.321,1.749-1.741,2.851
	c-0.421,1.104-0.633,2.308-0.633,3.614c0,1.278,0.218,2.482,0.653,3.614c0.436,1.132,1.031,2.112,1.786,2.939
	c0.755,0.827,1.633,1.48,2.635,1.959c1.001,0.479,2.068,0.719,3.2,0.719c0.724,0,1.443-0.102,2.155-0.306
	c0.711-0.203,1.372-0.486,1.981-0.849c0.61-0.362,1.132-0.777,1.568-1.241c0.436-0.464,0.74-0.959,0.916-1.48l2.917,0.87
	c-0.32,0.814-0.784,1.561-1.394,2.242c-0.609,0.682-1.328,1.278-2.155,1.786c-0.827,0.508-1.741,0.9-2.743,1.175
	c-1.002,0.276-2.041,0.414-3.114,0.414c-1.655,0-3.178-0.312-4.572-0.936c-1.393-0.625-2.599-1.48-3.614-2.569
	c-1.016-1.089-1.806-2.344-2.374-3.766C327.719,102.824,327.436,101.301,327.436,99.674"/>
<path fill="#FFFFFF" d="M364.229,91.01c-2.003,0.059-3.744,0.61-5.225,1.655c-1.48,1.045-2.525,2.482-3.135,4.311v14.107h-2.961
	V88.397h2.788v5.442c0.841-1.741,1.973-3.105,3.396-4.092c1.423-0.987,2.945-1.48,4.572-1.48c0.232,0,0.421,0.015,0.566,0.043V91.01
	z"/>
<path fill="#FFFFFF" d="M376.857,111.518c-1.655,0-3.172-0.312-4.55-0.936c-1.379-0.625-2.577-1.48-3.593-2.569
	c-1.016-1.089-1.806-2.344-2.374-3.766c-0.566-1.423-0.849-2.946-0.849-4.573c0-1.596,0.283-3.098,0.849-4.506
	c0.567-1.408,1.351-2.642,2.352-3.701c1.002-1.059,2.199-1.902,3.591-2.525c1.395-0.625,2.903-0.937,4.529-0.937
	c1.655,0,3.172,0.312,4.551,0.937c1.378,0.624,2.56,1.473,3.547,2.547c0.988,1.074,1.757,2.308,2.309,3.701
	c0.551,1.393,0.827,2.874,0.827,4.441v0.696c0,0.233-0.016,0.392-0.044,0.479h-19.42c0.087,1.22,0.37,2.345,0.849,3.375
	c0.48,1.031,1.095,1.923,1.849,2.678c0.755,0.755,1.619,1.342,2.592,1.763c0.972,0.421,2.01,0.63,3.113,0.63
	c0.726,0,1.452-0.101,2.177-0.304c0.727-0.203,1.394-0.479,2.005-0.827c0.609-0.349,1.16-0.776,1.654-1.284
	c0.494-0.508,0.87-1.067,1.133-1.677l2.568,0.697c-0.347,0.842-0.842,1.604-1.48,2.285c-0.64,0.682-1.379,1.278-2.221,1.786
	c-0.842,0.508-1.771,0.9-2.787,1.175C379.019,111.38,377.96,111.518,376.857,111.518 M385.217,98.542
	c-0.087-1.219-0.37-2.329-0.849-3.331c-0.479-1.002-1.089-1.864-1.829-2.591c-0.74-0.726-1.596-1.291-2.569-1.698
	c-0.972-0.406-2.01-0.61-3.113-0.61c-1.104,0-2.148,0.204-3.135,0.61c-0.987,0.406-1.851,0.972-2.59,1.698
	c-0.741,0.727-1.337,1.597-1.785,2.612c-0.452,1.018-0.719,2.12-0.806,3.31H385.217z"/>
<path fill="#FFFFFF" d="M401.937,111.518c-1.568,0-3.019-0.326-4.354-0.98c-1.336-0.653-2.481-1.516-3.44-2.59
	c-0.958-1.074-1.706-2.315-2.242-3.724c-0.538-1.407-0.805-2.881-0.805-4.419c0-1.596,0.26-3.114,0.783-4.55
	c0.522-1.437,1.241-2.692,2.155-3.767c0.915-1.073,2.003-1.922,3.265-2.547c1.262-0.624,2.649-0.936,4.159-0.936
	c1.915,0,3.614,0.5,5.095,1.502c1.481,1.002,2.641,2.214,3.483,3.636V79.297h2.961v27.954c0,0.813,0.349,1.219,1.045,1.219v2.612
	c-0.435,0.087-0.783,0.131-1.045,0.131c-0.696,0-1.306-0.225-1.828-0.676c-0.523-0.449-0.784-0.994-0.784-1.632v-2.221
	c-0.9,1.48-2.119,2.656-3.657,3.527C405.188,111.082,403.592,111.518,401.937,111.518 M402.59,108.906
	c0.726,0,1.502-0.145,2.331-0.436c0.826-0.29,1.603-0.689,2.328-1.198c0.726-0.507,1.344-1.102,1.851-1.785
	c0.508-0.681,0.821-1.415,0.936-2.198v-7.011c-0.29-0.784-0.711-1.517-1.262-2.199c-0.551-0.681-1.183-1.285-1.895-1.806
	c-0.711-0.523-1.474-0.929-2.285-1.219c-0.813-0.29-1.611-0.436-2.395-0.436c-1.219,0-2.323,0.261-3.31,0.783
	c-0.987,0.523-1.836,1.212-2.548,2.069c-0.71,0.856-1.255,1.836-1.632,2.938c-0.377,1.104-0.566,2.237-0.566,3.397
	c0,1.219,0.217,2.38,0.653,3.484c0.436,1.102,1.03,2.068,1.785,2.895c0.755,0.827,1.647,1.487,2.679,1.981
	C400.29,108.659,401.399,108.906,402.59,108.906"/>
<path fill="#FFFFFF" d="M419.701,79.297h2.961v4.354h-2.961V79.297z M419.701,88.397h2.961v22.685h-2.961V88.397z"/>
<path fill="#FFFFFF" d="M440.079,109.994c-0.173,0.087-0.428,0.204-0.762,0.349c-0.334,0.146-0.719,0.29-1.153,0.436
	c-0.436,0.145-0.93,0.276-1.48,0.392c-0.551,0.116-1.132,0.174-1.742,0.174c-0.64,0-1.249-0.087-1.828-0.261
	c-0.582-0.174-1.089-0.443-1.525-0.806c-0.436-0.362-0.783-0.819-1.045-1.371s-0.393-1.191-0.393-1.916V90.749h-3.134v-2.352h3.134
	v-7.663h2.962v7.663h5.225v2.352h-5.225v15.414c0.057,0.842,0.354,1.459,0.892,1.851c0.536,0.392,1.153,0.587,1.851,0.587
	c0.842,0,1.581-0.137,2.22-0.413c0.639-0.276,1.046-0.472,1.22-0.589L440.079,109.994z"/>
<path fill="#FFFFFF" d="M452.881,111.519c-1.654,0-3.164-0.312-4.528-0.937c-1.366-0.624-2.548-1.473-3.55-2.547
	c-1.002-1.073-1.779-2.322-2.329-3.744c-0.551-1.423-0.827-2.918-0.827-4.486c0-1.596,0.283-3.106,0.849-4.529
	c0.567-1.422,1.35-2.67,2.352-3.744c1.002-1.073,2.183-1.93,3.548-2.569c1.364-0.637,2.858-0.958,4.484-0.958
	c1.625,0,3.127,0.32,4.507,0.958c1.379,0.64,2.568,1.496,3.57,2.569c1.002,1.074,1.785,2.323,2.351,3.744
	c0.566,1.423,0.849,2.933,0.849,4.529c0,1.568-0.276,3.063-0.826,4.486c-0.552,1.423-1.329,2.671-2.331,3.744
	c-1.001,1.074-2.191,1.923-3.57,2.547C456.051,111.206,454.534,111.519,452.881,111.519 M444.651,99.849
	c0,1.277,0.217,2.46,0.653,3.548c0.436,1.089,1.023,2.046,1.765,2.874c0.739,0.827,1.611,1.474,2.611,1.938
	c1.002,0.464,2.069,0.696,3.201,0.696c1.132,0,2.199-0.239,3.201-0.718c1.001-0.48,1.879-1.133,2.634-1.959
	c0.755-0.827,1.349-1.793,1.785-2.896c0.436-1.102,0.653-2.292,0.653-3.57c0-1.248-0.217-2.431-0.653-3.548
	c-0.436-1.117-1.03-2.091-1.785-2.918s-1.633-1.48-2.634-1.959c-1.002-0.479-2.069-0.719-3.201-0.719
	c-1.132,0-2.192,0.24-3.178,0.719c-0.987,0.479-1.859,1.14-2.613,1.981c-0.755,0.843-1.349,1.822-1.785,2.94
	C444.868,97.374,444.651,98.572,444.651,99.849"/>
<rect x="468.686" y="106.816" fill="#FFFFFF" width="2.57" height="4.267"/>
<path fill="#FFFFFF" d="M511.095,111.083h-2.96v-12.67c0-2.642-0.421-4.587-1.263-5.835c-0.843-1.248-2.089-1.872-3.744-1.872
	c-0.872,0-1.691,0.16-2.461,0.478c-0.77,0.32-1.481,0.771-2.134,1.35c-0.653,0.581-1.227,1.27-1.719,2.068
	c-0.495,0.799-0.872,1.676-1.132,2.635v13.846h-2.961v-12.67c0-2.701-0.407-4.66-1.22-5.879c-0.813-1.219-2.061-1.828-3.744-1.828
	c-1.714,0-3.237,0.594-4.572,1.785c-1.336,1.19-2.294,2.757-2.874,4.703v13.889h-2.961V88.398h2.7v5.138
	c0.929-1.742,2.148-3.098,3.658-4.071c1.509-0.972,3.177-1.459,5.007-1.459c1.915,0,3.445,0.538,4.593,1.612
	c1.147,1.074,1.851,2.482,2.111,4.223c2.119-3.889,5.037-5.835,8.753-5.835c1.277,0,2.358,0.233,3.244,0.697
	c0.885,0.464,1.596,1.125,2.134,1.981c0.537,0.857,0.928,1.888,1.176,3.091c0.246,1.205,0.369,2.548,0.369,4.028V111.083z"/>
<polygon fill="#FFFFFF" points="517.932,88.397 524.724,97.28 525.073,97.933 525.42,97.28 532.213,88.397 535.392,88.397 
	526.728,99.805 535.392,111.082 532.213,111.082 525.42,102.243 525.073,101.634 524.724,102.243 517.932,111.082 514.753,111.082 
	523.418,99.805 514.753,88.397 "/>
<path fill="#FFFFFF" d="M76.932,41.202c-15.087,0-29.27,5.876-39.938,16.543C26.326,68.414,20.45,82.597,20.45,97.684
	c0,15.084,5.876,29.269,16.542,39.936v0.001l0.001,0.001c9.057,9.056,20.554,14.64,33.247,16.146
	c1.816,0.215,3.461-1.081,3.677-2.896c0.215-1.814-1.082-3.46-2.896-3.676c-10.104-1.199-19.348-5.327-26.932-11.99l4.694-4.693
	c16.97,14.573,42.654,13.821,58.726-2.251c7.589-7.589,11.761-17.322,12.519-27.268h6.655c-0.787,12.072-5.86,23.314-14.494,31.948
	c-7.839,7.838-17.78,12.74-28.749,14.176c-1.812,0.237-3.09,1.899-2.853,3.711c0.238,1.812,1.9,3.089,3.711,2.852
	c12.429-1.628,23.691-7.181,32.571-16.059c10.668-10.668,16.542-24.851,16.542-39.938c0-15.087-5.874-29.27-16.542-39.938
	S92.019,41.202,76.932,41.202 M51.035,123.581c-5.426-5.426-8.961-12.282-10.222-19.825c-0.302-1.802-2.008-3.02-3.811-2.719
	c-1.802,0.302-3.019,2.008-2.718,3.811c1.306,7.818,4.681,15.01,9.818,20.984l-4.691,4.691c-7.981-9.092-12.342-20.63-12.342-32.838
	c0-13.32,5.187-25.841,14.605-35.259c9.418-9.418,21.939-14.605,35.258-14.605s25.84,5.186,35.258,14.605
	c8.634,8.634,13.707,19.876,14.494,31.948h-6.655c-0.757-9.946-4.929-19.679-12.519-27.268c-16.86-16.86-44.295-16.86-61.155,0
	c-6.406,6.406-10.581,14.503-12.07,23.413c-0.301,1.803,0.916,3.508,2.719,3.81c1.802,0.301,3.508-0.916,3.81-2.719
	c1.078-6.451,3.821-12.397,7.987-17.379l4.705,4.705c-9.433,11.77-8.697,29.056,2.211,39.964c11.699,11.699,30.735,11.699,42.434,0
	c11.699-11.699,11.699-30.735,0-42.434c-1.293-1.293-3.388-1.293-4.68,0l-7.253,7.253c-6.512-4.331-15.405-3.63-21.142,2.108
	c-6.538,6.537-6.538,17.175,0,23.713c6.538,6.539,17.175,6.538,23.713,0c1.125-1.125,2.084-2.404,2.851-3.803
	c0.877-1.603,0.291-3.614-1.313-4.492c-1.602-0.878-3.612-0.292-4.491,1.311c-0.465,0.849-1.047,1.624-1.727,2.305
	c-3.957,3.957-10.395,3.958-14.352,0c-3.957-3.957-3.957-10.396,0-14.352c3.957-3.958,10.395-3.957,14.352,0
	c0.619,0.619,1.157,1.314,1.597,2.069c0.92,1.579,2.947,2.112,4.525,1.191c1.579-0.921,2.112-2.949,1.191-4.526
	c-0.166-0.285-0.343-0.565-0.525-0.84l4.749-4.748c6.874,9.155,6.149,22.244-2.174,30.568c-9.118,9.118-23.955,9.118-33.073,0
	c-9.118-9.118-9.118-23.955,0-33.073c5.502-5.503,13.356-7.903,21.007-6.421c1.795,0.347,3.53-0.826,3.878-2.62
	c0.347-1.794-0.825-3.531-2.62-3.878c-8.718-1.689-17.64,0.558-24.473,6.031l-4.705-4.705c14.376-12.001,35.858-11.258,49.349,2.233
	c14.28,14.279,14.28,37.515,0,51.795C88.55,137.861,65.315,137.861,51.035,123.581"/>
</svg>
